# xmcd
#
# Track frame offsets: 
#        150
#        18299
#        37742
#        60894
#        77538
#        93864
#        112305
#        142735
#        162832
#        187175
#        209181
#        229632
#        248585
#        269841
#        291546
#        312779
#        333820
#
# Disc length: 4750 seconds
#
# Revision: 0
# Processed by: cddbd v1.5.2PL0 Copyright (c) Steve Scherf et al.
# Submitted via: ExactAudioCopy v1.0b1
#
DISCID=e8128c11
DTITLE=KASSAV - Saga 1-3
DYEAR=2009
DGENRE=Reggae
TTITLE0=Lagé mwen pou mwen pé palé
TTITLE1=Mwen ka déviné
TTITLE2=Neg mawon
TTITLE3=Kalkilé
TTITLE4=Wonderfull
TTITLE5=zonbi
TTITLE6=Banzawa
TTITLE7=Lavi
TTITLE8=Rété
TTITLE9=Bel kréati
TTITLE10=Palé mwen dous
TTITLE11=Kay Mannan
TTITLE12=Kolé séré
TTITLE13=Mi tché-mwen
TTITLE14=Avé'w doudou
TTITLE15=Anba laté
TTITLE16=An mouvman
EXTD=
EXTT0=
EXTT1=
EXTT2=
EXTT3=
EXTT4=
EXTT5=
EXTT6=
EXTT7=
EXTT8=
EXTT9=
EXTT10=
EXTT11=
EXTT12=
EXTT13=
EXTT14=
EXTT15=
EXTT16=
PLAYORDER=
